HIERARCHY
ROOT Hips
{
 OFFSET 0.000000 0.000000 0.000000
 CHANNELS 6 Xposition Yposition Zposition Yrotation Xrotation Zrotation
 JOINT Chest
 {
  OFFSET 0.000000 14.632000 -0.008700
  CHANNELS 3 Yrotation Xrotation Zrotation
  JOINT Chest2
  {
   OFFSET 0.000000 8.637700 0.017800
   CHANNELS 3 Yrotation Xrotation Zrotation
   JOINT Chest3
   {
    OFFSET 0.000000 8.599900 0.000000
    CHANNELS 3 Yrotation Xrotation Zrotation
    JOINT Chest4
    {
     OFFSET 0.000000 8.591100 0.000000
     CHANNELS 3 Yrotation Xrotation Zrotation
     JOINT Neck
     {
      OFFSET 0.000000 13.139200 0.000000
      CHANNELS 3 Yrotation Xrotation Zrotation
      JOINT Head
      {
       OFFSET 0.000000 8.045900 0.037600
       CHANNELS 3 Yrotation Xrotation Zrotation
       End Site
       {
        OFFSET 0.000000 15.258900 0.019900
       }
      }
     }
     JOINT RightCollar
     {
      OFFSET -2.790300 8.725300 0.000000
      CHANNELS 3 Yrotation Xrotation Zrotation
      JOINT RightShoulder
      {
       OFFSET -13.162000 0.000000 0.000000
       CHANNELS 3 Yrotation Xrotation Zrotation
       JOINT RightElbow
       {
        OFFSET 0.000000 -23.347200 0.000000
        CHANNELS 3 Yrotation Xrotation Zrotation
        JOINT RightWrist
        {
         OFFSET 0.000000 -19.377400 0.019700
         CHANNELS 3 Yrotation Xrotation Zrotation
         End Site
         {
          OFFSET 0.000000 -14.645200 0.000000
         }
        }
       }
      }
     }
     JOINT LeftCollar
     {
      OFFSET 2.790300 8.725300 0.000000
      CHANNELS 3 Yrotation Xrotation Zrotation
      JOINT LeftShoulder
      {
       OFFSET 13.162000 0.000000 0.000000
       CHANNELS 3 Yrotation Xrotation Zrotation
       JOINT LeftElbow
       {
        OFFSET 0.000000 -23.347200 0.000000
        CHANNELS 3 Yrotation Xrotation Zrotation
        JOINT LeftWrist
        {
         OFFSET 0.000000 -19.377400 0.019700
         CHANNELS 3 Yrotation Xrotation Zrotation
         End Site
         {
          OFFSET 0.000000 -14.645200 0.000000
         }
        }
       }
      }
     }
    }
   }
  }
 }
 JOINT RightHip
 {
  OFFSET -11.965000 0.043200 0.004400
  CHANNELS 3 Yrotation Xrotation Zrotation
  JOINT RightKnee
  {
   OFFSET 0.000000 -37.808000 -0.003100
   CHANNELS 3 Yrotation Xrotation Zrotation
   JOINT RightAnkle
   {
    OFFSET 0.000000 -38.963200 0.011000
    CHANNELS 3 Yrotation Xrotation Zrotation
    JOINT RightToe
    {
     OFFSET 0.000000 -8.453600 14.155200
     CHANNELS 3 Yrotation Xrotation Zrotation
     End Site
     {
      OFFSET 0.000000 -1.360900 5.784800
     }
    }
   }
  }
 }
 JOINT LeftHip
 {
  OFFSET 11.965000 0.043200 0.004400
  CHANNELS 3 Yrotation Xrotation Zrotation
  JOINT LeftKnee
  {
   OFFSET 0.000000 -37.808000 -0.003100
   CHANNELS 3 Yrotation Xrotation Zrotation
   JOINT LeftAnkle
   {
    OFFSET 0.000000 -38.963200 0.011000
    CHANNELS 3 Yrotation Xrotation Zrotation
    JOINT LeftToe
    {
     OFFSET 0.000000 -8.453600 14.155200
     CHANNELS 3 Yrotation Xrotation Zrotation
     End Site
     {
      OFFSET 0.000000 -1.360900 5.784800
     }
    }
   }
  }
 }
}
MOTION
Frames: 8
Frame Time: 0.008333
-86.804668 61.027417 2.171329 -179.129333 -33.164032 -0.325067 0.199692 22.319511 4.765057 -0.072216 3.207895 0.569812 -0.100995 5.192798 0.921537 0.084540 18.957295 3.402301 -0.388622 15.660796 -3.164736 0.402924 -6.681064 -5.736923 1.593325 -0.875966 -3.118557 1.111218 -6.208515 -15.651904 -174.278532 -73.431000 -157.733633 18.923663 -15.208000 -51.706609 -6.183691 -0.583088 -0.174231 24.133601 -0.009900 7.143651 -170.197483 -57.150130 147.206237 -12.127989 -16.897068 38.132067 9.008184 -37.669788 -9.498811 -4.522598 72.463669 -3.565395 3.042577 4.220311 6.863010 -0.108965 0.113942 -0.064494 -6.841190 -45.290175 -0.649192 28.911257 68.618245 25.489262 -9.368405 30.672923 3.647154 1.260891 -23.157915 -5.394909
-86.801831 61.027487 2.170657 -179.125423 -33.160195 -0.327184 0.229866 22.323853 4.770812 -0.068773 3.209464 0.569248 -0.060493 5.212056 0.908182 0.036163 18.929035 3.429417 -0.309266 15.567551 -3.187499 0.510078 -6.884099 -5.751440 1.607395 -0.879726 -3.113016 1.203194 -6.246931 -15.574212 -174.227432 -73.468482 -157.809804 18.915912 -15.178939 -51.695210 -6.172805 -0.568447 -0.173912 24.180300 0.022047 7.077741 -170.211163 -57.033805 147.220613 -12.137886 -16.873927 38.124597 9.006962 -37.669939 -9.503226 -4.508809 72.463806 -3.552585 3.040437 4.219314 6.865138 -0.108244 0.111868 -0.063898 -6.890692 -45.310993 -0.629465 28.929095 68.621458 25.495624 -9.345279 30.726937 3.662207 1.255277 -23.200325 -5.420603
-86.798973 61.026910 2.170332 -179.110857 -33.153234 -0.332148 0.279150 22.336993 4.773555 -0.090436 3.200069 0.579010 -0.061068 5.211067 0.903870 0.058864 18.936841 3.428849 -0.258315 15.454665 -3.179814 0.621607 -7.082001 -5.757611 1.653716 -0.896634 -3.099466 1.227157 -6.291238 -15.482135 -174.215544 -73.501755 -157.848954 18.910847 -15.146053 -51.684438 -6.135967 -0.522843 -0.177133 24.158471 0.001440 7.002742 -170.177646 -56.937694 147.151730 -12.137925 -16.862707 38.139046 8.996654 -37.673682 -9.512646 -4.474371 72.467329 -3.519605 3.035620 4.217167 6.864745 -0.107193 0.109116 -0.063185 -6.933701 -45.334062 -0.619891 28.939292 68.620030 25.502918 -9.334004 30.782649 3.671022 1.262265 -23.240438 -5.447563
-86.785937 61.025481 2.170611 -179.090786 -33.141253 -0.377061 0.300395 22.331490 4.812033 -0.061996 3.212633 0.566193 -0.079708 5.203168 0.910589 0.075203 18.939738 3.424119 -0.202523 15.350123 -3.166383 0.736924 -7.273241 -5.756813 1.655875 -0.908938 -3.076711 1.302087 -6.336342 -15.400713 -174.230850 -73.529112 -157.861597 18.908211 -15.112515 -51.675067 -6.118608 -0.485866 -0.172485 24.151557 0.000220 6.914772 -170.118323 -56.841645 147.064444 -12.120070 -16.850373 38.149981 8.951636 -37.681367 -9.466626 -4.484263 72.453315 -3.524401 3.037807 4.227292 6.859967 -0.107342 0.103918 -0.064908 -7.015098 -45.357204 -0.559464 28.956530 68.619335 25.520010 -9.297302 30.834851 3.698410 1.247390 -23.281050 -5.479605
-86.782235 61.024761 2.169190 -179.081680 -33.136097 -0.377027 0.299574 22.328570 4.807653 -0.061674 3.212834 0.565852 -0.074328 5.206760 0.905004 0.099775 18.950003 3.407353 -0.148479 15.246926 -3.149121 0.856123 -7.459341 -5.749932 1.659835 -0.920425 -3.055035 1.377340 -6.382857 -15.326126 -174.268057 -73.553373 -157.857654 18.906133 -15.083448 -51.661575 -6.117439 -0.457637 -0.165204 24.150788 0.007471 6.817357 -170.090600 -56.739772 147.049723 -12.092164 -16.822972 38.112242 8.945191 -37.684915 -9.475952 -4.500148 72.458123 -3.541385 3.046262 4.224086 6.861000 -0.107389 0.103666 -0.064978 -7.031828 -45.371435 -0.561616 28.955371 68.615573 25.528534 -9.298816 30.873052 3.691700 1.252484 -23.308825 -5.493440
-86.786283 61.025104 2.165527 -179.084883 -33.140133 -0.338047 0.306844 22.341852 4.760510 -0.046975 3.220442 0.548834 -0.092771 5.194891 0.928480 0.126222 18.969628 3.357667 -0.087412 15.134696 -3.095793 0.976705 -7.640533 -5.734632 1.665988 -0.942595 -3.004787 1.450209 -6.428881 -15.258686 -174.317017 -73.575090 -157.845446 18.912802 -15.042113 -51.652481 -6.133833 -0.456674 -0.108055 24.153984 0.039591 6.702375 -170.057106 -56.649018 147.037111 -12.064644 -16.791083 38.064722 8.972612 -37.681132 -9.526873 -4.491340 72.479219 -3.544908 3.048752 4.207796 6.869927 -0.105766 0.105188 -0.063950 -7.003869 -45.381637 -0.611408 28.958098 68.613022 25.543644 -9.332168 30.918148 3.664994 1.279284 -23.343218 -5.503668
-86.769867 61.024737 2.162239 -179.076698 -33.139351 -0.383977 0.355152 22.354300 4.781254 -0.056973 3.214877 0.559941 -0.076468 5.203414 0.905823 0.129363 18.964988 3.364142 -0.022141 15.035347 -3.056154 1.094122 -7.815897 -5.708567 1.675152 -0.955673 -2.965886 1.530564 -6.470837 -15.205171 -174.375463 -73.590936 -157.822531 18.933301 -14.974205 -51.665204 -6.128281 -0.413706 -0.098025 24.131258 0.028658 6.592148 -170.116507 -56.572161 147.168604 -12.066130 -16.736728 37.929472 8.923585 -37.678956 -9.456056 -4.534889 72.463966 -3.593474 3.054416 4.217155 6.870163 -0.107461 0.100042 -0.066523 -7.085125 -45.395742 -0.542838 29.012152 68.614930 25.599091 -9.303414 30.983794 3.703004 1.266655 -23.403216 -5.550309
-86.761428 61.026003 2.156022 -179.073761 -33.151156 -0.395261 0.366445 22.369123 4.784361 -0.051699 3.217410 0.552436 -0.071028 5.206335 0.895983 0.137058 18.967220 3.351882 0.041966 14.944235 -3.023136 1.206013 -7.983225 -5.673946 1.671127 -0.968324 -2.923493 1.626178 -6.506688 -15.174307 -174.448192 -73.600268 -157.779507 18.917397 -14.945085 -51.636083 -6.118040 -0.368595 -0.101919 24.094374 0.016676 6.476219 -170.082821 -56.500629 147.186772 -12.041435 -16.679354 37.810206 8.903431 -37.663917 -9.432030 -4.547204 72.465214 -3.614065 3.057125 4.212917 6.872646 -0.108071 0.100007 -0.066369 -7.131495 -45.403258 -0.519120 29.078261 68.616776 25.662579 -9.304659 31.062682 3.737918 1.285302 -23.473675 -5.608573
